<svg width="119" height="34" viewBox="0 0 119 34" fill="none" xmlns="http://www.w3.org/2000/svg">
<g clip-path="url(#clip0_2078_53)">
<path d="M66.3769 26.7315C65.789 27.5685 65.0087 28.1904 64.0361 28.5975C63.0635 28.9821 61.9778 29.1743 60.7792 29.1743C59.8293 29.1743 58.9585 29.0612 58.1668 28.835C57.3979 28.6089 56.7193 28.2696 56.1313 27.8172C55.5432 27.3422 55.0796 26.7655 54.7403 26.087C54.4011 25.3859 54.2314 24.5942 54.2314 23.7122C54.2314 22.7397 54.4237 21.9141 54.8081 21.2356C55.1927 20.5344 55.7129 19.9691 56.3687 19.5392C57.0473 19.1095 57.839 18.7929 58.7436 18.5893C59.6483 18.3632 60.5982 18.2501 61.5934 18.2501H66.1734C66.1734 16.9382 65.8793 15.9205 65.2914 15.1968C64.7033 14.473 63.6742 14.0998 62.2041 14.0771C61.3446 14.0771 60.5982 14.2242 59.9649 14.5182C59.3543 14.8123 58.9471 15.2985 58.7436 15.9771H54.7743C54.91 15.0272 55.2154 14.2242 55.6903 13.5683C56.1879 12.9124 56.776 12.3696 57.4544 11.9399C58.1556 11.5101 58.9245 11.2048 59.7614 11.0238C60.6208 10.8429 61.4802 10.7524 62.3398 10.7524C63.4481 10.7524 64.4771 10.8995 65.427 11.1935C66.3769 11.4875 67.2024 11.9851 67.9036 12.6862C68.6952 13.5004 69.2268 14.473 69.4981 15.6039C69.7696 16.7348 69.9053 17.9674 69.9053 19.3018V28.9368H66.5466L66.3769 26.7315ZM66.1734 20.9981H62.4415C61.7856 20.9981 61.1298 21.0546 60.4738 21.1677C59.8179 21.2582 59.2525 21.4957 58.7775 21.8801C58.3252 22.2421 58.0989 22.7735 58.0989 23.4747C58.0989 24.3341 58.4043 24.9901 59.015 25.4424C59.6483 25.8721 60.4172 26.087 61.322 26.087C62.0231 26.087 62.6678 25.9965 63.2558 25.8156C63.8664 25.6346 64.3866 25.3407 64.8163 24.9335C65.2461 24.5038 65.5741 23.9723 65.8002 23.339C66.0491 22.6831 66.1734 21.9028 66.1734 20.9981Z" fill="white"/>
<path d="M76.2631 3.62793C76.9643 3.62793 77.541 3.8428 77.9933 4.27253C78.4684 4.70225 78.7059 5.29031 78.7059 6.03669C78.7059 6.76044 78.4684 7.33719 77.9933 7.76691C77.541 8.19664 76.9643 8.41151 76.2631 8.41151C75.5168 8.41151 74.9174 8.19664 74.4651 7.76691C74.0127 7.33719 73.7866 6.76044 73.7866 6.03669C73.7866 5.29031 74.0127 4.70225 74.4651 4.27253C74.9174 3.8428 75.5168 3.62793 76.2631 3.62793ZM74.2954 28.9368V11.0577H78.1631V28.9368H74.2954Z" fill="white"/>
<path d="M108.901 10.7524C110.326 10.7524 111.582 10.9786 112.667 11.431C113.753 11.8833 114.669 12.5166 115.415 13.3308C116.184 14.1224 116.761 15.0837 117.145 16.2146C117.53 17.3454 117.722 18.6007 117.722 19.9803C117.722 21.3826 117.53 22.6492 117.145 23.7801C116.784 24.8883 116.229 25.8495 115.483 26.6638C114.737 27.478 113.809 28.0999 112.701 28.5297C111.615 28.9595 110.349 29.1743 108.901 29.1743C107.476 29.1743 106.221 28.9595 105.136 28.5297C104.05 28.0773 103.134 27.4553 102.388 26.6638C101.664 25.8495 101.11 24.877 100.725 23.7461C100.363 22.6152 100.182 21.3599 100.182 19.9803C100.182 18.6007 100.363 17.3454 100.725 16.2146C101.11 15.0837 101.675 14.1224 102.421 13.3308C103.168 12.5166 104.084 11.8833 105.17 11.431C106.255 10.9786 107.499 10.7524 108.901 10.7524ZM108.901 25.8156C109.783 25.8156 110.53 25.6686 111.14 25.3745C111.774 25.058 112.283 24.6395 112.667 24.1193C113.074 23.5991 113.368 22.9884 113.549 22.2873C113.753 21.5862 113.855 20.8285 113.855 20.0142C113.855 19.2 113.753 18.4423 113.549 17.7412C113.368 17.0175 113.074 16.3954 112.667 15.8752C112.283 15.355 111.774 14.9479 111.14 14.654C110.53 14.3599 109.783 14.2129 108.901 14.2129C108.042 14.2129 107.307 14.3599 106.696 14.654C106.085 14.9479 105.577 15.355 105.17 15.8752C104.762 16.3954 104.457 17.0175 104.253 17.7412C104.072 18.4423 103.982 19.2 103.982 20.0142C103.982 20.8285 104.072 21.5862 104.253 22.2873C104.457 22.9884 104.751 23.5991 105.136 24.1193C105.543 24.6395 106.052 25.058 106.662 25.3745C107.295 25.6686 108.042 25.8156 108.901 25.8156Z" fill="white"/>
<path d="M89.2545 18.3518H86.4725V5.6604H82.6389V28.9368H86.4725V21.7105H89.492L94.2077 28.9368H98.686L92.5793 19.5732L98.211 11.0577H93.8685L89.2545 18.3518Z" fill="white"/>
<path d="M51.6162 11.0069H47.0368V5.6604H45.8534L40.2881 13.2218V14.1996H43.1459V23.0488C43.1459 25.1377 43.6166 26.6413 44.5577 27.5594C45.5217 28.4776 47.1171 28.9366 49.3437 28.9366H51.4785V25.5623H49.688C48.6551 25.5623 47.955 25.3098 47.5878 24.8049C47.2204 24.2998 47.0368 23.5308 47.0368 22.4978V14.1996H51.6162V11.0069Z" fill="white"/>
<path d="M35.2175 27.248L29.0531 18.873C28.3835 17.963 27.392 17.4178 26.3359 17.2977C26.0955 17.2698 25.8809 17.1303 25.7608 16.9199C25.6384 16.7096 25.6254 16.4542 25.722 16.231C26.1448 15.2565 26.1706 14.1253 25.7156 13.0908L21.5453 3.56539C20.9271 2.15096 19.5299 1.23877 17.9867 1.23877C16.4434 1.23877 15.0462 2.15311 14.428 3.56539L10.2577 13.0908C9.80483 14.1253 9.82843 15.2565 10.2513 16.231C10.3478 16.4542 10.3328 16.7096 10.2126 16.9199C10.0903 17.1303 9.8778 17.2698 9.6374 17.2977C8.5814 17.4178 7.58981 17.963 6.92015 18.873L0.755872 27.248C-0.158466 28.4909 -0.250761 30.1563 0.519775 31.4936C1.29245 32.8286 2.78201 33.582 4.3145 33.4124L14.6492 32.262C15.7717 32.1375 16.7396 31.5515 17.3706 30.6972C17.5144 30.502 17.7441 30.386 17.9867 30.386C18.2292 30.386 18.4568 30.502 18.6027 30.6972C19.2337 31.5515 20.2016 32.1375 21.3243 32.262L31.6588 33.4124C33.1913 33.5841 34.6809 32.8307 35.4535 31.4936C36.2241 30.1563 36.1318 28.4909 35.2175 27.248ZM12.9535 14.2863L17.1302 4.75018C17.2805 4.40891 17.6175 4.18783 17.9887 4.18783C18.3601 4.18783 18.6971 4.40891 18.8474 4.75018L23.0241 14.2863C23.155 14.5868 23.1272 14.9345 22.9469 15.2093C22.7665 15.484 22.4617 15.6493 22.1313 15.6493H13.8443C13.5158 15.6493 13.2089 15.484 13.0286 15.2093C12.8483 14.9345 12.8204 14.5868 12.9513 14.2863H12.9535ZM15.0977 28.8042C14.9495 29.0983 14.662 29.2957 14.3357 29.3322L3.9904 30.4826C3.62122 30.5234 3.26064 30.3431 3.07391 30.0211C2.88718 29.6992 2.91079 29.2978 3.13186 28.9973L9.30258 20.6137C9.4979 20.3497 9.81126 20.1996 10.1396 20.2188C10.4681 20.2361 10.7642 20.4185 10.9295 20.7039L10.9359 20.7147L15.0676 27.8705L15.074 27.8812C15.2393 28.1667 15.248 28.5144 15.0998 28.8063L15.0977 28.8042ZM18.8367 25.5675C18.6606 25.8701 18.3387 26.0589 17.9867 26.0589C17.6368 26.0589 17.3127 25.8723 17.1367 25.5696L13.9622 20.0729C13.7862 19.7703 13.7862 19.3947 13.9622 19.092C14.1382 18.7894 14.4602 18.6005 14.8122 18.6005H21.159C21.5088 18.6005 21.8328 18.785 22.0089 19.0899C22.1849 19.3947 22.1849 19.768 22.0089 20.0708L18.8367 25.5675ZM32.9015 30.0211C32.7148 30.3431 32.3564 30.5255 31.9851 30.4847L21.6397 29.3343C21.3134 29.2978 21.0259 29.1004 20.8778 28.8063C20.7297 28.5123 20.7383 28.1646 20.9036 27.8812L20.91 27.8705L25.0417 20.7147L25.0481 20.7039C25.2134 20.4185 25.5095 20.2361 25.8379 20.2188C26.1664 20.2017 26.4797 20.3497 26.6751 20.6137L32.8457 28.9973C33.0668 29.2978 33.0883 29.6992 32.9038 30.0211H32.9015Z" fill="white"/>
</g>
<defs>
<clipPath id="clip0_2078_53">
<rect width="119" height="34" fill="white"/>
</clipPath>
</defs>
</svg>
