<svg width="185" height="50" viewBox="0 0 185 50" fill="none" xmlns="http://www.w3.org/2000/svg">
<g clip-path="url(#clip0_2060_348)">
<path d="M14.6706 1.22246e-06C12.8222 0.00921097 10.9936 0.384044 9.28945 1.10316C7.58527 1.82228 6.03882 2.87165 4.73841 4.19118C3.43799 5.51069 2.40909 7.07462 1.71045 8.79359C1.01181 10.5126 0.657154 12.353 0.666691 14.2096V18.9032H12.0449V12.1032C12.0448 11.7838 12.1073 11.4676 12.2289 11.1725C12.3505 10.8775 12.5288 10.6094 12.7536 10.3835C12.9784 10.1577 13.2453 9.97862 13.539 9.85643C13.8327 9.73422 14.1476 9.67138 14.4655 9.67144H14.8757C15.1936 9.67138 15.5085 9.73424 15.8022 9.85643C16.096 9.97862 16.3629 10.1577 16.5878 10.3835C16.8126 10.6093 16.9908 10.8775 17.1126 11.1725C17.2342 11.4676 17.2967 11.7838 17.2967 12.1032V30.3324C18.7909 30.3324 20.2706 30.0368 21.651 29.4625C23.0315 28.8881 24.2859 28.0462 25.3425 26.985C26.3991 25.9237 27.2371 24.6637 27.809 23.2771C28.3807 21.8904 28.675 20.4041 28.675 18.9032V14.2096C28.6831 10.4478 27.2083 6.83559 24.573 4.1626C23.28 2.84356 21.7385 1.79621 20.0383 1.08155C18.3383 0.366906 16.5136 -0.000773728 14.6706 1.22246e-06Z" fill="#F2F2F2"/>
<path d="M14.8762 39.5599H14.466C14.1481 39.5599 13.8334 39.4969 13.5397 39.3749C13.246 39.2526 12.9791 39.0735 12.7543 38.8477C12.5295 38.6219 12.3512 38.354 12.2296 38.059C12.108 37.764 12.0454 37.4476 12.0455 37.1284V18.8994C10.5512 18.8993 9.07158 19.1947 7.69105 19.769C6.31052 20.3434 5.05617 21.1851 3.99957 22.2465C2.94298 23.3078 2.10485 24.5678 1.53308 25.9546C0.961316 27.3412 0.66711 28.8275 0.667238 30.3284V34.9566C0.648282 36.816 0.996512 38.6607 1.69178 40.3841C2.38705 42.1075 3.41557 43.6753 4.71786 44.9969C6.02014 46.3184 7.57035 47.3675 9.27882 48.0835C10.9873 48.7996 12.8202 49.1682 14.6714 49.1682C16.5226 49.1682 18.3554 48.7996 20.0639 48.0835C21.7723 47.3675 23.3226 46.3184 24.6249 44.9969C25.9272 43.6753 26.9557 42.1075 27.6509 40.3841C28.3463 38.6607 28.6944 36.816 28.6754 34.9566V30.3284H17.2973V37.1284C17.2973 37.4478 17.2346 37.764 17.113 38.059C16.9913 38.354 16.8129 38.6221 16.5881 38.8478C16.3633 39.0737 16.0964 39.2526 15.8026 39.3749C15.509 39.4969 15.1941 39.5599 14.8762 39.5599Z" fill="#F2F2F2"/>
<path d="M48.1244 14.4302H44.1365V34.7514H55.8412V30.9202H48.1249L48.1244 14.4302Z" fill="#F2F2F2"/>
<path d="M68.6123 21.9567C68.0499 21.2545 67.3296 20.6963 66.5107 20.3281C65.6919 19.9597 64.7976 19.7916 63.9015 19.8375C62.9651 19.8301 62.0382 20.0245 61.1831 20.4078C60.3281 20.791 59.5648 21.3541 58.945 22.0589C57.614 23.5569 56.8784 25.4944 56.8784 27.5023C56.8784 29.5101 57.614 31.4476 58.945 32.9457C59.565 33.6503 60.3283 34.2131 61.1834 34.5961C62.0385 34.9791 62.9653 35.1735 63.9015 35.1662C65.9247 35.1662 67.4951 34.4597 68.6123 33.047V34.76H72.3409V20.245H68.6123V21.9567ZM67.4714 30.4485C67.0953 30.8266 66.646 31.1232 66.1516 31.3204C65.657 31.5176 65.1275 31.611 64.5957 31.595C64.0658 31.612 63.5382 31.5191 63.0457 31.3217C62.5533 31.1245 62.1068 30.8272 61.734 30.4485C61.0083 29.6401 60.6067 28.5901 60.6067 27.5016C60.6067 26.4129 61.0083 25.3631 61.734 24.5547C62.107 24.1763 62.5536 23.8792 63.0459 23.682C63.5382 23.4848 64.0659 23.3917 64.5957 23.4085C65.1274 23.3928 65.6568 23.4863 66.1513 23.6834C66.6459 23.8804 67.0951 24.1769 67.4714 24.5547C68.2053 25.3591 68.6123 26.4104 68.6123 27.5016C68.6123 28.5926 68.2053 29.6441 67.4714 30.4485Z" fill="#F2F2F2"/>
<path d="M81.9496 29.9882L78.1806 20.2322H74.1055L80.0284 34.2834C79.7805 35.1219 79.2931 35.8688 78.6266 36.4316C77.926 36.9088 77.0857 37.1339 76.2416 37.0707V40.5548C77.8872 40.7076 79.5323 40.2588 80.8748 39.2907C82.1148 38.3506 83.1109 36.8444 83.8631 34.7722L89.1315 20.2332H85.1431L81.9496 29.9882Z" fill="#F2F2F2"/>
<path d="M97.2025 19.8346C96.1861 19.7988 95.1734 19.9749 94.2282 20.3523C93.2832 20.7296 92.4264 21.2999 91.7118 22.027C90.3323 23.5167 89.5677 25.4773 89.573 27.512C89.5782 29.5465 90.3529 31.5032 91.7403 32.9857C93.1856 34.4367 95.1027 35.1624 97.4918 35.1627C100.266 35.1627 102.366 34.1276 103.792 32.0573L100.787 30.3148C100.404 30.802 99.9102 31.1886 99.3462 31.4414C98.7825 31.6943 98.1658 31.8058 97.5495 31.7663C95.3334 31.7663 93.975 30.8568 93.4741 29.0379H104.37C104.463 28.5301 104.512 28.0148 104.515 27.4985C104.57 25.4766 103.827 23.5149 102.448 22.0408C101.781 21.3192 100.967 20.7491 100.063 20.3686C99.158 19.9882 98.1829 19.8061 97.2025 19.8346ZM93.4167 26.1345C93.5817 25.2816 94.0423 24.5151 94.7169 23.9711C95.4341 23.4386 96.3107 23.1671 97.2021 23.202C98.0167 23.1914 98.8129 23.4463 99.4713 23.9283C100.172 24.4699 100.641 25.2582 100.786 26.134L93.4167 26.1345Z" fill="#F2F2F2"/>
<path d="M110.839 22.7316V20.2342H107.111V34.7497H110.839V27.8116C110.839 26.4182 111.287 25.4214 112.183 24.8213C113.08 24.2211 114.165 23.973 115.232 24.1245V19.9452C114.295 19.9333 113.372 20.1739 112.559 20.6419C111.755 21.11 111.146 21.8513 110.839 22.7316Z" fill="#F2F2F2"/>
<path d="M133.408 17.5731V14.4302H120.146V18.2625H128.355L119.933 31.551V34.7509H133.569V30.9197H124.985L133.408 17.5731Z" fill="#F2F2F2"/>
<path d="M142.375 19.8346C141.359 19.7988 140.346 19.9749 139.401 20.3523C138.456 20.7296 137.599 21.2999 136.884 22.027C135.504 23.5167 134.74 25.4774 134.745 27.5121C134.75 29.5467 135.525 31.5033 136.913 32.9857C138.358 34.4367 140.275 35.1624 142.664 35.1627C145.438 35.1627 147.538 34.1276 148.965 32.0573L145.959 30.3148C145.577 30.8018 145.083 31.1885 144.519 31.4413C143.955 31.6942 143.339 31.8057 142.722 31.7663C140.506 31.7663 139.148 30.8568 138.647 29.0379H149.543C149.636 28.5299 149.684 28.0148 149.687 27.4985C149.742 25.4766 149 23.5149 147.621 22.0408C146.953 21.3192 146.14 20.7491 145.235 20.3686C144.331 19.9882 143.356 19.8061 142.375 19.8346ZM138.59 26.1345C138.754 25.2816 139.215 24.5149 139.89 23.9711C140.607 23.4383 141.484 23.167 142.375 23.2021C143.19 23.1911 143.986 23.446 144.644 23.9283C145.345 24.4699 145.815 25.2582 145.959 26.134L138.59 26.1345Z" fill="#F2F2F2"/>
<path d="M156.011 22.7316V20.2342H152.282V34.7497H156.011V27.8116C156.011 26.4182 156.459 25.4214 157.355 24.8213C158.251 24.2211 159.336 23.9732 160.403 24.1245V19.9452C159.467 19.9333 158.543 20.1739 157.73 20.6419C156.927 21.11 156.317 21.8511 156.011 22.7316Z" fill="#F2F2F2"/>
<path d="M168.906 19.832C167.156 19.8514 165.467 20.4783 164.126 21.6064C162.785 22.7345 161.873 24.2942 161.547 26.0206C161.221 27.7469 161.499 29.5335 162.335 31.0772C163.171 32.6208 164.513 33.8261 166.133 34.4886C167.753 35.151 169.552 35.2298 171.224 34.7114C172.895 34.1931 174.336 33.1094 175.303 31.6447C176.27 30.18 176.702 28.4245 176.526 26.6761C176.35 24.9278 175.577 23.2945 174.339 22.0535C173.633 21.3291 172.786 20.7582 171.851 20.376C170.917 19.9939 169.914 19.8088 168.906 19.832ZM171.709 30.3703C171.344 30.741 170.906 31.0326 170.424 31.2272C169.942 31.4216 169.426 31.5148 168.906 31.501C168.388 31.5158 167.873 31.4231 167.393 31.2285C166.913 31.0338 166.477 30.7417 166.115 30.3703C165.4 29.5857 165.002 28.5601 165.002 27.496C165.002 26.432 165.4 25.4066 166.115 24.6219C166.477 24.2506 166.913 23.9585 167.393 23.7639C167.873 23.5694 168.388 23.4763 168.906 23.491C169.426 23.4773 169.941 23.5707 170.424 23.7653C170.906 23.9597 171.344 24.2513 171.709 24.6219C172.433 25.402 172.836 26.4292 172.836 27.496C172.836 28.5629 172.433 29.5901 171.709 30.3703Z" fill="#F2F2F2"/>
<path d="M184.385 30.2849H179.849V34.7556H184.385V30.2849Z" fill="#F2F2F2"/>
<path d="M184.385 30.2849H179.849V34.7556H184.385V30.2849Z" fill="#F2F2F2"/>
</g>
<defs>
<clipPath id="clip0_2060_348">
<rect width="184" height="50" fill="white" transform="translate(0.666504)"/>
</clipPath>
</defs>
</svg>
