<svg width="196" height="26" viewBox="0 0 196 26" fill="none" xmlns="http://www.w3.org/2000/svg">
<g clip-path="url(#clip0_2085_459)">
<path d="M27.9932 7.68076L28.0382 7.66177C28.1722 7.60442 28.2706 7.57311 28.348 7.56326L28.4331 7.54883C28.6075 7.51295 28.7875 7.49501 28.9675 7.49501C30.0503 7.49501 30.9545 7.15762 31.5824 6.51943C32.0341 6.05997 32.3184 5.46365 32.4178 4.77339L32.4729 4.7741V0.805664H25.8598V3.67679C25.8438 3.88366 25.8451 4.07399 25.8465 4.24251C25.8479 4.42756 25.849 4.60241 25.8267 4.73504L25.8204 4.77726C25.7457 5.33805 25.4747 5.85873 25.0575 6.24326C24.6302 6.63729 24.4303 6.72384 24.3644 6.74248C24.2981 6.76148 24.2018 6.75268 23.9234 6.71504C23.6834 6.68267 23.3545 6.63835 22.9533 6.63835C21.2395 6.63835 19.8031 7.93231 19.6119 9.6495C19.5693 10.04 19.5934 10.332 19.6108 10.5449C19.6304 10.7816 19.6363 10.8531 19.5543 11.0888C19.3918 11.5521 19.0457 11.9821 18.5801 12.299C18.1144 12.616 17.5782 12.7909 17.071 12.7909L17.0215 12.7902L16.9719 12.7909C16.4647 12.7909 15.9286 12.6164 15.4629 12.299C14.9969 11.9821 14.6508 11.5521 14.489 11.0899C14.4066 10.8531 14.4122 10.7813 14.4321 10.5442C14.4496 10.3313 14.4736 10.0397 14.4311 9.64809C14.2403 7.93196 12.8038 6.63799 11.09 6.63799C10.6888 6.63799 10.3599 6.68232 10.1181 6.71504C9.84185 6.75233 9.74522 6.76113 9.67894 6.74213C9.61301 6.72313 9.41313 6.63694 8.98582 6.24256C8.56862 5.85838 8.29792 5.3377 8.22292 4.77691L8.21665 4.73469C8.20583 4.67031 8.2006 4.59608 8.19816 4.51551V0.805664H1.58364V4.16933C1.57596 5.11676 1.8791 5.92945 2.45955 6.51979C3.08709 7.15797 3.99126 7.49501 5.07403 7.49501C5.25403 7.49501 5.43368 7.5133 5.60879 7.54919L5.69356 7.56326C5.77065 7.57346 5.86902 7.60477 6.00401 7.66212L6.04832 7.68076C6.49656 7.85948 6.88935 8.15888 7.18411 8.54692C7.90967 9.50104 7.91177 10.8362 7.18969 11.7931C6.95318 12.1069 6.64551 12.3687 6.30052 12.5506L6.26947 12.5675C6.17494 12.6195 6.09052 12.6582 6.01308 12.6853C5.97855 12.6973 5.9475 12.7071 5.91855 12.7156L5.88576 12.7254C5.62484 12.8099 5.3517 12.8524 5.07438 12.8524C2.97791 12.8524 1.56934 14.1527 1.56934 16.088C1.56934 17.5987 2.25234 18.3826 2.82512 18.7741C3.52418 19.2519 4.3673 19.3873 5.1745 19.4619L5.23031 19.4683C5.44449 19.4964 5.62518 19.5407 5.83274 19.616L5.93285 19.6544L5.94995 19.6607C6.49342 19.8479 6.94865 20.2303 7.23225 20.7379C7.39236 21.0247 7.50329 21.4001 7.54445 21.7944C7.5605 21.9496 7.57131 22.0998 7.58177 22.2483C7.5898 22.3612 7.59887 22.4879 7.61108 22.6152V25.5289H14.2242V21.6382L14.1775 21.6375C14.0686 20.8892 13.7163 20.2039 13.1589 19.6716C13.1097 19.6252 13.0644 19.5858 13.0281 19.5544L13.0057 19.5351C12.2941 18.9131 11.3687 18.8966 10.6927 18.8842H10.6853C10.5723 18.8821 10.4652 18.88 10.3707 18.8755L10.2692 18.8596L10.0518 18.8107L9.84708 18.747L9.62627 18.6584C9.39499 18.5525 9.17907 18.4146 8.98756 18.2503L8.94465 18.213C8.33281 17.6613 8.02932 16.9813 8.01677 16.1345C8.01851 15.5294 8.21037 14.9559 8.57175 14.4757C8.92407 14.0078 9.42325 13.6595 9.97719 13.4948C10.5381 13.3284 11.5843 13.3242 12.0887 13.4868C13.0078 13.7826 13.6602 14.6333 13.7114 15.6036C13.7156 15.6838 13.7125 15.7679 13.709 15.8664C13.6985 16.151 13.6842 16.5408 13.8471 17.0337C14.3079 18.4051 15.5826 19.33 17.0225 19.3356C18.4587 19.33 19.7329 18.4047 20.1948 17.0313C20.357 16.5412 20.3427 16.1514 20.3322 15.8654C20.3287 15.7679 20.3256 15.6838 20.3298 15.604C20.3811 14.6337 21.0334 13.7826 21.9525 13.4871C22.457 13.3246 23.5028 13.3288 24.0637 13.4952C24.618 13.6602 25.1175 14.0085 25.4695 14.4764C25.8308 14.9566 26.0227 15.5301 26.0244 16.1352C26.0119 16.982 25.7084 17.6621 25.0962 18.214L25.0571 18.2482C24.8625 18.4149 24.6462 18.5532 24.4149 18.6591L24.1945 18.7477L23.9897 18.8114L23.8118 18.8529L23.6709 18.8762C23.5767 18.8807 23.4693 18.8828 23.3562 18.885H23.3489C22.6729 18.8973 21.7474 18.9138 21.0376 19.5344L21.0131 19.5559C20.9769 19.5872 20.9319 19.6262 20.8816 19.6737C20.3448 20.1863 19.9981 20.8438 19.877 21.5626H19.8177V25.53H26.4308V22.6163C26.443 22.4893 26.4521 22.3623 26.4601 22.2493C26.4706 22.1033 26.4814 21.9524 26.4975 21.7962C26.5386 21.4011 26.6495 21.0257 26.8097 20.739C27.0933 20.2317 27.5485 19.8493 28.092 19.6617L28.2092 19.6171C28.4167 19.5421 28.5974 19.4978 28.8119 19.4693L28.8674 19.463C29.6746 19.3884 30.5177 19.2529 31.2168 18.7752C32.2549 18.0659 32.4726 16.9229 32.4726 16.0891C32.4726 14.1538 31.064 12.8535 28.9675 12.8535C28.6902 12.8535 28.4171 12.8106 28.1561 12.7265L28.1234 12.7166C28.0944 12.7082 28.0634 12.6983 28.0309 12.6871C27.9514 12.6596 27.867 12.6206 27.7703 12.5675L27.7414 12.5516C27.3964 12.3697 27.0887 12.108 26.8519 11.7942C26.1298 10.8373 26.1319 9.50209 26.8575 8.54798C27.1522 8.16028 27.545 7.86054 27.9932 7.68217V7.68076Z" fill="white"/>
<path d="M74.1088 25.2915H70.0109V7.56181C70.0109 6.65994 68.7269 6.49457 68.4982 7.36567L63.7852 25.2915H56.0027L51.2878 7.36567C51.0591 6.49457 49.7751 6.65994 49.7751 7.56181V25.2915H45.6772V1.13721H53.7769L59.1607 21.959C59.3587 22.7282 60.4523 22.7282 60.6503 21.959L66.0072 1.13721H74.1068V25.2896L74.1088 25.2915Z" fill="white"/>
<path d="M75.4736 16.7095C75.4736 11.4348 78.8085 7.7793 84.0827 7.7793C89.3569 7.7793 92.7225 11.4348 92.7225 16.7095C92.7225 21.9842 89.3876 25.6724 84.0827 25.6724C78.7777 25.6724 75.4736 22.0169 75.4736 16.7095ZM88.6572 16.7095C88.6572 12.9597 87.0369 10.5753 84.0827 10.5753C81.1284 10.5753 79.5081 12.9597 79.5081 16.7095C79.5081 20.4593 81.1592 22.8745 84.0827 22.8745C87.0062 22.8745 88.6572 20.49 88.6572 16.7095Z" fill="white"/>
<path d="M105.777 8.16162H109.779L104.474 25.2914H97.0413L91.7363 8.16162H95.7073L100.021 22.3819C100.242 23.1107 101.272 23.1088 101.493 22.3819L105.777 8.16354V8.16162Z" fill="white"/>
<path d="M125.504 17.8864H113.746C113.26 17.8864 112.9 18.3325 112.993 18.8113C113.516 21.5054 115.099 22.8764 117.275 22.8764C119.451 22.8764 120.579 21.8919 121.183 20.2381H125.217C124.137 23.8937 121.246 25.6724 117.244 25.6724C112.003 25.6724 108.826 21.9226 108.826 16.7095C108.826 11.4964 112.097 7.7793 117.244 7.7793C122.392 7.7793 125.6 11.2752 125.6 16.6134C125.6 16.9941 125.567 17.4402 125.504 17.8844V17.8864ZM113.817 15.1211H120.65C121.14 15.1211 121.504 14.6673 121.402 14.1866C120.937 11.9829 119.397 10.5772 117.242 10.5772C115.088 10.5772 113.667 11.7367 113.07 14.1674C112.95 14.6519 113.318 15.1211 113.817 15.1211Z" fill="white"/>
<path d="M152.155 14.5173V25.2917H148.184V15.2808C148.184 12.0713 147.041 10.6099 144.817 10.6099C142.593 10.6099 141.418 12.0713 141.418 15.3442V25.2917H137.447V15.2808C137.447 12.0713 136.304 10.6099 134.08 10.6099C131.856 10.6099 130.682 12.0713 130.682 15.3442V25.2917H126.711V8.16197H130.649V8.89654C130.649 9.59457 131.508 9.93686 131.979 9.4215C132.869 8.44464 134.124 7.7793 135.86 7.7793C138.107 7.7793 139.639 8.95615 140.521 10.4849C140.819 11.0003 141.547 11.0041 141.855 10.4945C142.754 8.99461 144.261 7.7793 146.566 7.7793C150.377 7.7793 152.157 10.608 152.157 14.5173H152.155Z" fill="white"/>
<path d="M169.815 17.8864H158.058C157.572 17.8864 157.212 18.3325 157.305 18.8113C157.827 21.5054 159.411 22.8764 161.587 22.8764C163.763 22.8764 164.891 21.8919 165.495 20.2381H169.529C168.449 23.8937 165.558 25.6724 161.556 25.6724C156.315 25.6724 153.137 21.9226 153.137 16.7095C153.137 11.4964 156.409 7.7793 161.556 7.7793C166.704 7.7793 169.912 11.2752 169.912 16.6134C169.912 16.9941 169.879 17.4402 169.815 17.8844V17.8864ZM158.129 15.1211H164.962C165.452 15.1211 165.816 14.6673 165.714 14.1866C165.249 11.9829 163.709 10.5772 161.554 10.5772C159.4 10.5772 157.979 11.7367 157.381 14.1674C157.262 14.6519 157.629 15.1211 158.129 15.1211Z" fill="white"/>
<path d="M186.207 14.5174V25.2917H182.236V15.2808C182.236 12.0387 180.869 10.6099 178.615 10.6099C176.36 10.6099 174.994 12.0714 174.994 15.3442V25.2917H171.022V8.162H174.961V8.94079C174.961 9.64267 175.816 9.9715 176.297 9.45999C177.24 8.45429 178.576 7.78125 180.395 7.78125C184.333 7.78125 186.207 10.7041 186.207 14.5193V14.5174Z" fill="white"/>
<path d="M193.678 22.3359C192.217 22.3359 191.358 21.859 191.358 20.2072V11.8558C191.358 11.4308 191.702 11.0866 192.127 11.0866H195.423V8.16373H192.127C191.702 8.16373 191.358 7.81952 191.358 7.39455V4.09668H187.387V20.3995C187.387 23.7358 189.834 25.2934 193.009 25.2934H195.487V22.3378H193.676L193.678 22.3359Z" fill="white"/>
</g>
<defs>
<clipPath id="clip0_2085_459">
<rect width="195" height="25" fill="white" transform="translate(0.666992 0.805664)"/>
</clipPath>
</defs>
</svg>
