<svg width="124" height="34" viewBox="0 0 124 34" fill="none" xmlns="http://www.w3.org/2000/svg">
<g clip-path="url(#clip0_2060_298)">
<path d="M45.4646 29.7418V4.04712H61.4368V7.38441H49.3083V15.2132H59.7004V18.5381H49.3083V26.4045H61.5861V29.7418H45.4646Z" fill="white"/>
<path d="M70.343 4.04712V29.7418H66.6235V4.04712H70.343Z" fill="white"/>
<path d="M75.6968 29.7419V10.4709H79.4163V29.7419H75.6968Z" fill="white"/>
<path d="M87.7062 10.4709L91.9233 17.9736L96.1775 10.4709H100.245L94.2867 20.1063L100.295 29.7419H96.2272L91.9233 22.5405L87.6316 29.7419H83.5515L89.4976 20.1063L83.6261 10.4709H87.7062Z" fill="white"/>
<path d="M104.415 29.7419V10.4709H108.134V29.7419H104.415Z" fill="white"/>
<path d="M113.488 29.7419V10.4709H117.083V13.5322H117.282C117.63 12.4951 118.245 11.6795 119.123 11.0857C120.011 10.4835 121.014 10.1824 122.133 10.1824C122.366 10.1824 122.639 10.1907 122.954 10.2075C123.278 10.2242 123.531 10.2451 123.713 10.2702V13.8584C123.564 13.8165 123.299 13.7705 122.918 13.7204C122.536 13.6618 122.155 13.6326 121.773 13.6326C120.893 13.6326 120.11 13.8207 119.422 14.1971C118.742 14.5652 118.202 15.0795 117.805 15.7404C117.407 16.3927 117.208 17.1371 117.208 17.9736V29.7419H113.488Z" fill="white"/>
<path d="M75.6968 7.60208V4.05078H79.4163V7.60208H75.6968Z" fill="white"/>
<path d="M104.415 7.60208V4.05078H108.134V7.60208H104.415Z" fill="white"/>
<path d="M16.6733 0C7.45909 0 0 7.56737 0 16.9153C0 26.2633 7.45909 33.8306 16.6733 33.8306C25.8875 33.8306 33.3465 26.2633 33.3465 16.9153C33.3465 7.56737 25.8875 0 16.6733 0ZM16.6733 30.5433C9.24792 30.5433 3.24014 24.4484 3.24014 16.9153C3.24014 15.6142 3.88142 12.6009 8.47163 12.6009C13.0619 12.6009 17.1457 17.1207 22.6473 17.7713C24.5036 18.011 25.9887 17.9767 27.1025 17.8399C28.7226 17.6343 30.0389 19.2094 29.5664 20.8188C27.9125 26.4344 22.7823 30.5433 16.6733 30.5433Z" fill="white"/>
</g>
<defs>
<clipPath id="clip0_2060_298">
<rect width="124" height="34" fill="white"/>
</clipPath>
</defs>
</svg>
