<svg width="81" height="80" viewBox="0 0 81 80" fill="none" xmlns="http://www.w3.org/2000/svg">
<g opacity="0.4">
<path d="M11.0847 14.505C11.0847 12.5692 9.42407 11 7.3756 11C5.32712 11 3.6665 12.5692 3.6665 14.505V46.6337C3.6665 49.5545 5.52105 53.0594 7.99378 55.396L20.3574 65.6102V70H37.6665L36.4301 54.2277C36.4301 52.6784 35.1607 50.408 34.0013 49.3125L20.9765 37.2818C19.528 35.9131 17.1795 35.9131 15.731 37.2818C14.2825 38.6506 14.2825 40.8698 15.731 42.2386L28.3439 53.9091L25.0536 55.5182L12.5003 43.7517C12.1112 43.387 11.8839 42.8819 11.8689 42.3488L11.0847 14.505Z" fill="white"/>
<path d="M70.2483 14.505C70.2483 12.5692 71.9089 11 73.9574 11C76.0059 11 77.6665 12.5692 77.6665 14.505V46.6337C77.6665 49.5545 75.812 53.0594 73.3392 55.396L60.9756 65.6102V70H43.6665L44.9029 54.2277C44.9029 52.6784 46.1723 50.408 47.3317 49.3125L60.3565 37.2818C61.805 35.9131 64.1535 35.9131 65.602 37.2818C67.0505 38.6506 67.0505 40.8698 65.602 42.2386L52.9891 53.9091L56.2794 55.5182L68.8327 43.7517C69.2218 43.387 69.4491 42.8819 69.4642 42.3488L70.2483 14.505Z" fill="white"/>
</g>
</svg>
