<svg width="80" height="80" viewBox="0 0 80 80" fill="none" xmlns="http://www.w3.org/2000/svg">
<g opacity="0.4">
<path d="M38.5546 12.9244C39.1325 11.6919 40.8675 11.6919 41.4454 12.9244L44.7381 19.9472C44.9713 20.4445 45.4387 20.7878 45.9786 20.8582L53.6035 21.8537C54.9417 22.0284 55.4778 23.6963 54.4968 24.6328L48.907 29.9685C48.5111 30.3464 48.3326 30.9018 48.4331 31.4426L49.8528 39.0807C50.1019 40.4211 48.6983 41.452 47.5142 40.7982L40.7667 37.0731C40.2889 36.8093 39.7111 36.8093 39.2333 37.0731L32.4858 40.7983C31.3017 41.452 29.8981 40.4211 30.1472 39.0807L31.5669 31.4426C31.6674 30.9018 31.4889 30.3464 31.0931 29.9685L25.5032 24.6328C24.5222 23.6963 25.0583 22.0284 26.3965 21.8537L34.0214 20.8582C34.5613 20.7878 35.0287 20.4445 35.2619 19.9472L38.5546 12.9244Z" fill="white"/>
<path d="M15.5546 39.9244C16.1325 38.6919 17.8675 38.6919 18.4454 39.9244L21.7381 46.9472C21.9713 47.4445 22.4387 47.7878 22.9786 47.8582L30.6035 48.8537C31.9417 49.0284 32.4778 50.6963 31.4968 51.6328L25.907 56.9685C25.5111 57.3464 25.3326 57.9018 25.4331 58.4426L26.8528 66.0807C27.1019 67.4211 25.6983 68.452 24.5142 67.7982L17.7667 64.0731C17.2889 63.8093 16.7111 63.8093 16.2333 64.0731L9.48584 67.7982C8.30167 68.452 6.89806 67.4211 7.1472 66.0807L8.56687 58.4426C8.6674 57.9018 8.48888 57.3464 8.09305 56.9685L2.50319 51.6328C1.52219 50.6963 2.05832 49.0284 3.39648 48.8537L11.0214 47.8582C11.5613 47.7878 12.0287 47.4445 12.2619 46.9472L15.5546 39.9244Z" fill="white"/>
<path d="M64.4454 39.9244C63.8675 38.6919 62.1325 38.6919 61.5546 39.9244L58.2619 46.9472C58.0287 47.4445 57.5613 47.7878 57.0214 47.8582L49.3965 48.8537C48.0583 49.0284 47.5222 50.6963 48.5032 51.6328L54.093 56.9685C54.4889 57.3464 54.6674 57.9018 54.5669 58.4426L53.1472 66.0807C52.8981 67.4211 54.3017 68.452 55.4858 67.7982L62.2333 64.0731C62.7111 63.8093 63.2889 63.8093 63.7667 64.0731L70.5142 67.7982C71.6983 68.452 73.1019 67.4211 72.8528 66.0807L71.4331 58.4426C71.3326 57.9018 71.5111 57.3464 71.907 56.9685L77.4968 51.6328C78.4778 50.6963 77.9417 49.0284 76.6035 48.8537L68.9786 47.8582C68.4387 47.7878 67.9713 47.4445 67.7381 46.9472L64.4454 39.9244Z" fill="white"/>
</g>
</svg>
