<svg width="112" height="168" viewBox="0 0 112 168" fill="none" xmlns="http://www.w3.org/2000/svg">
<g filter="url(#filter0_f_2060_150)">
<path d="M28.0001 143.4C18.6778 143.4 11.0108 136.313 10.0923 127.233C3.02229 133.004 -7.41022 132.594 -14.002 126.002C-20.5939 119.41 -21.0042 108.978 -15.2331 101.908C-24.3132 100.989 -31.3999 93.3223 -31.3999 84.0001C-31.3999 74.6778 -24.3132 67.0108 -15.2331 66.0923C-21.0042 59.0223 -20.5939 48.5898 -14.002 41.9979C-7.4102 35.4061 3.02229 34.9958 10.0923 40.7668C11.0108 31.6868 18.6778 24.6001 28.0001 24.6001C37.3223 24.6001 44.9894 31.6868 45.9079 40.7668C52.9779 34.9957 63.4104 35.4061 70.0022 41.9979C76.5941 48.5898 77.0044 59.0223 71.2333 66.0923C80.3134 67.0108 87.4001 74.6778 87.4001 84.0001C87.4001 93.3223 80.3134 100.989 71.2333 101.908C77.0044 108.978 76.5941 119.41 70.0022 126.002C63.4104 132.594 52.9779 133.004 45.9079 127.233C44.9894 136.313 37.3224 143.4 28.0001 143.4Z" fill="#F6B538"/>
</g>
<defs>
<filter id="filter0_f_2060_150" x="-56" y="0" width="168" height="168" filterUnits="userSpaceOnUse" color-interpolation-filters="sRGB">
<feFlood flood-opacity="0" result="BackgroundImageFix"/>
<feBlend mode="normal" in="SourceGraphic" in2="BackgroundImageFix" result="shape"/>
<feGaussianBlur stdDeviation="12" result="effect1_foregroundBlur_2060_150"/>
</filter>
</defs>
</svg>
