<svg width="80" height="80" viewBox="0 0 80 80" fill="none" xmlns="http://www.w3.org/2000/svg">
<g opacity="0.4">
<path fill-rule="evenodd" clip-rule="evenodd" d="M41.4234 3.26182C40.5066 2.91273 39.4934 2.91273 38.5766 3.26182L12.5766 13.1618C11.0253 13.7525 10 15.24 10 16.9V40C10 51.6605 17.5968 60.9213 24.3433 66.9153C27.796 69.9829 31.2304 72.3784 33.7942 74.0054C35.0802 74.8216 36.1577 75.4509 36.9229 75.8811C37.3057 76.0963 37.6112 76.262 37.8264 76.3767C37.934 76.4341 38.0191 76.4787 38.0801 76.5104L38.1533 76.5483L38.176 76.5599L38.1868 76.5654C38.1897 76.5669 38.6673 75.6207 38.1892 76.5667C39.3273 77.1444 40.6727 77.1444 41.8108 76.5667C41.3327 75.6207 41.8103 76.5669 41.8132 76.5654L41.824 76.5599L41.8467 76.5483L41.9199 76.5104C41.9809 76.4787 42.066 76.4341 42.1736 76.3767C42.3888 76.262 42.6943 76.0963 43.0771 75.8811C43.8423 75.4509 44.9198 74.8216 46.2058 74.0054C48.7696 72.3784 52.204 69.9829 55.6567 66.9153C62.4032 60.9213 70 51.6605 70 40V16.9C70 15.24 68.9747 13.7525 67.4234 13.1618L41.4234 3.26182ZM41.9192 67.2508C41.1924 67.7121 40.5443 68.1039 40 68.423C39.4557 68.1039 38.8076 67.7121 38.0808 67.2508C35.7696 65.7841 32.704 63.6421 29.6567 60.9347C23.4032 55.3787 18 48.1395 18 40V19.6571L40 11.2802L62 19.6571V40C62 48.1395 56.5968 55.3787 50.3433 60.9347C47.296 63.6421 44.2304 65.7841 41.9192 67.2508Z" fill="white"/>
</g>
</svg>
