<svg width="80" height="80" viewBox="0 0 80 80" fill="none" xmlns="http://www.w3.org/2000/svg">
<g opacity="0.4">
<path fill-rule="evenodd" clip-rule="evenodd" d="M69 5H17V25.2426L24.5858 32.8284C25.3668 33.6095 26.6332 33.6095 27.4142 32.8284L32 28.2426L36.5858 32.8284C37.3668 33.6095 38.6332 33.6095 39.4142 32.8284L44 28.2426L48.5858 32.8284C49.3668 33.6095 50.6332 33.6095 51.4142 32.8284L56 28.2426L60.5858 32.8284C61.3668 33.6095 62.6332 33.6095 63.4142 32.8284L68.4142 27.8284C68.7893 27.4534 69 26.9446 69 26.4142V5ZM23 22.7574V11H63V24.7574L62 25.7574L57.4142 21.1716C56.6332 20.3905 55.3668 20.3905 54.5858 21.1716L50 25.7574L45.4142 21.1716C44.6332 20.3905 43.3668 20.3905 42.5858 21.1716L38 25.7574L33.4142 21.1716C32.6332 20.3905 31.3668 20.3905 30.5858 21.1716L26 25.7574L23 22.7574Z" fill="white"/>
<path fill-rule="evenodd" clip-rule="evenodd" d="M20.029 39.5747L27 43.7573L31.5858 39.1715C32.3668 38.3904 33.6332 38.3904 34.4142 39.1715L39 43.7573L43.5858 39.1715C44.3668 38.3904 45.6332 38.3904 46.4142 39.1715L51 43.7573L55.5858 39.1715C56.3668 38.3904 57.6332 38.3904 58.4142 39.1715L63 43.7573L66.0458 42.1038C67.3784 41.3803 69 42.3451 69 43.8614V63.9999C69 69.9656 64.251 74.8221 58.3272 74.9952L58.329 74.9999H20C13.9249 74.9999 9 70.0751 9 63.9999V57.9999H17V41.2896C17 39.7351 18.6959 38.7748 20.029 39.5747ZM62.4142 51.6568C62.7893 52.0318 63 52.5405 63 53.071V63.9999C63 66.7614 60.7614 68.9999 58 68.9999C55.2386 68.9999 53 66.7614 53 63.9999V57.9999H23V48.2425L25.5858 50.8283C26.3668 51.6094 27.6332 51.6094 28.4142 50.8283L33 46.2425L37.5858 50.8283C38.3668 51.6094 39.6332 51.6094 40.4142 50.8283L45 46.2425L49.5858 50.8283C50.3668 51.6094 51.6332 51.6094 52.4142 50.8283L57 46.2425L62.4142 51.6568ZM48.1994 68.9999C47.4326 67.4998 47 65.8004 47 63.9999H15C15 66.7614 17.2386 68.9999 20 68.9999H48.1994Z" fill="white"/>
</g>
</svg>
