<svg width="80" height="80" viewBox="0 0 80 80" fill="none" xmlns="http://www.w3.org/2000/svg">
<g opacity="0.4">
<path fill-rule="evenodd" clip-rule="evenodd" d="M73.1213 11.1213C74.2929 9.94975 74.2929 8.05025 73.1213 6.87868C71.9498 5.70711 70.0503 5.70711 68.8787 6.87868L55 20.7574V15C55 12.2386 52.7614 10 50 10H30C27.2386 10 25 12.2386 25 15V21H17C14.2386 21 12 23.2386 12 26V58C12 59.5736 12.727 60.9775 13.8634 61.894L6.87868 68.8787C5.70711 70.0503 5.70711 71.9498 6.87868 73.1213C8.05025 74.2929 9.94975 74.2929 11.1213 73.1213L73.1213 11.1213ZM18.7574 57L48.7574 27H18V57H18.7574ZM49 21V16H31V21H49Z" fill="white"/>
<path d="M62 57H35.2426L29.2426 63H63C65.7614 63 68 60.7614 68 58V26C68 25.4694 67.9174 24.9582 67.7643 24.4784L62 30.2426V57Z" fill="white"/>
</g>
</svg>
