<svg width="32" height="32" viewBox="0 0 32 32" fill="none" xmlns="http://www.w3.org/2000/svg">
<rect width="32" height="32" rx="5" fill="white" fill-opacity="0.14"/>
<path d="M8.25 10C9.63071 10 10.75 8.88071 10.75 7.5C10.75 6.11929 9.63071 5 8.25 5C6.86929 5 5.75 6.11929 5.75 7.5C5.75 8.88071 6.86929 10 8.25 10Z" fill="white"/>
<path d="M12.6107 11.3376V24.9989H16.8207V18.2431C16.8207 16.4604 17.1535 14.7341 19.3473 14.7341C21.511 14.7341 21.5378 16.7722 21.5378 18.3556V25H25.75V17.5082C25.75 13.8281 24.9636 11 20.6944 11C18.6447 11 17.2708 12.1333 16.709 13.2058H16.652V11.3376H12.6107ZM5.75 11.3376H9.9667V24.9989H5.75V11.3376Z" fill="white"/>
</svg>
