<svg width="32" height="32" viewBox="0 0 32 32" fill="none" xmlns="http://www.w3.org/2000/svg">
<rect width="32" height="32" rx="5" fill="white" fill-opacity="0.14"/>
<path d="M24.8487 6.82543C24.8487 6.82543 26.8221 6.04629 26.657 7.93834C26.6027 8.71748 26.1095 11.4447 25.7255 14.3941L24.4099 23.1318C24.4099 23.1318 24.3002 24.4119 23.3132 24.6346C22.3268 24.8567 20.8467 23.8554 20.5724 23.6327C20.353 23.4656 16.4611 20.961 15.0907 19.737C14.7067 19.4027 14.2678 18.7352 15.1455 17.9561L20.9015 12.3905C21.5593 11.7219 22.2171 10.1636 19.4763 12.0562L11.8013 17.343C11.8013 17.343 10.924 17.9 9.27984 17.3991L5.71613 16.2857C5.71613 16.2857 4.40056 15.451 6.6482 14.6163C12.1304 12.0007 18.8733 9.32947 24.8482 6.82491" fill="white"/>
</svg>
