<svg width="20" height="22" viewBox="0 0 20 22" fill="none" xmlns="http://www.w3.org/2000/svg">
<path fill-rule="evenodd" clip-rule="evenodd" d="M10 0C6.68629 0 4 2.68629 4 6V9H3C1.34315 9 0 10.3431 0 12V19C0 20.6569 1.34315 22 3 22H17C18.6569 22 20 20.6569 20 19V12C20 10.3431 18.6569 9 17 9H16V6C16 2.68629 13.3137 0 10 0ZM14 9V6C14 3.79086 12.2091 2 10 2C7.79086 2 6 3.79086 6 6V9H14ZM10 12.5C9.44771 12.5 9 12.9477 9 13.5V17.5C9 18.0523 9.44772 18.5 10 18.5C10.5523 18.5 11 18.0523 11 17.5V13.5C11 12.9477 10.5523 12.5 10 12.5Z" fill="white"/>
</svg>
