<svg width="391" height="16" viewBox="0 0 391 16" fill="none" xmlns="http://www.w3.org/2000/svg">
<path d="M0 16V0H5.47386V11.9254H26.7808V16H0Z" fill="white"/>
<path d="M111.413 16L92.6732 4.78467V16H87.0381V0H93.4616L112.201 11.2153V0H117.836V16H111.413Z" fill="white"/>
<path d="M133.904 15.9919V8.54032H139.382V11.6532H155.603C157.702 11.6532 159.225 10.1129 159.225 7.99194C159.225 5.87097 157.702 4.33065 155.603 4.33065H133.904V0H157.296C161.38 0 164.702 3.58871 164.702 8C164.702 12.4113 161.38 16 157.296 16H133.904V15.9919Z" fill="white"/>
<path d="M179.08 16V11.9254H201.393C202.586 11.9254 203.302 10.9813 203.302 10.0777C203.302 9.17398 202.586 8.22996 201.393 8.22996H182.364C179.731 8.22996 178.093 6.70499 178.093 4.24408C178.093 1.6702 179.772 0 182.364 0H207.903V4.07464H185.591C184.397 4.07464 183.681 5.01866 183.681 5.92234C183.681 6.82602 184.397 7.77005 185.591 7.77005H204.619C207.253 7.77005 208.891 9.29501 208.891 11.7559C208.891 14.3298 207.212 16 204.619 16H179.08Z" fill="white"/>
<path d="M231.054 16C226.955 16 223.62 12.4113 223.62 8C223.62 3.58871 226.955 0 231.054 0H253.079V4.59677H232.64C230.639 4.59677 229.126 6.05645 229.126 8C229.126 9.94355 230.639 11.4032 232.64 11.4032H253.079V16H231.054Z" fill="white"/>
<path d="M295.286 16L293.303 13.41H277.128L275.145 16H269.147L281.398 0H289.034L301.284 16H295.286ZM279.447 10.3681H290.976L285.208 2.84821L279.439 10.3681H279.447Z" fill="white"/>
<path d="M317.352 15.9919V8.28225H339.328C340.558 8.28225 341.423 7.41936 341.423 6.17742C341.423 4.93549 340.558 4.07258 339.328 4.07258H317.352V0H341.232C344.724 0 346.811 3.14516 346.811 6.17742C346.811 9.20968 344.724 12.371 341.232 12.371H322.749V16H317.352V15.9919Z" fill="white"/>
<path d="M71.6633 2.91358V0.234375L42.6392 0.234375V2.91358L71.6633 2.91358Z" fill="white"/>
<path d="M71.6633 9.37196V6.69276L42.6392 6.69276V9.37196L71.6633 9.37196Z" fill="white"/>
<path d="M71.6554 15.8224V13.1432L42.6314 13.1432V15.8224L71.6554 15.8224Z" fill="white"/>
<path d="M391 2.92142V0.242188L361.976 0.242188V2.92142L391 2.92142Z" fill="white"/>
<path d="M391 9.37194V6.69271L361.976 6.69271V9.37194L391 9.37194Z" fill="white"/>
<path d="M391 15.8303V13.151L361.976 13.151V15.8303L391 15.8303Z" fill="white"/>
</svg>
