<svg width="23" height="25" viewBox="0 0 23 25" fill="none" xmlns="http://www.w3.org/2000/svg">
<g filter="url(#filter0_d_2105_835)">
<path d="M19.0197 10C19.0197 8.5 17.7197 7.4 16.3197 7.4C16.0197 7.4 15.8197 7.5 15.5197 7.6C15.0197 7.2 14.4197 6.9 13.7197 6.9C13.4197 6.9 13.2197 7 12.9197 7.1C12.4197 6.6 11.8197 6.4 11.1197 6.4L11.0197 3.9C10.9197 2.8 10.0197 2 8.91969 2C7.81969 2 6.91969 2.9 6.91969 4V8V10.2C6.01969 9.6 4.91969 9.5 3.91969 9.9L3.61969 10C3.11969 10.5 2.81969 11.2 3.11969 11.8L4.31969 15C4.61969 15.7 5.21969 16.5 5.71969 17C5.71969 17 5.71969 17 5.81969 17.1C5.91969 17.2 7.51969 18.7 7.71969 18.9C7.81969 19 7.81969 19.1 7.91969 19.2V21H13.6197L14.0197 20.2L14.4197 21H17.0197V19C17.0197 19 18.3197 16.4 18.4197 16.4C18.6197 16.1 18.8197 15.7 18.9197 15.3C19.0197 14.9 19.1197 14.5 19.1197 14.1L19.0197 10Z" fill="black" fill-opacity="0.8"/>
</g>
<path d="M16.3195 8.4C15.8195 8.4 15.4195 8.8 15.4195 9.2V9.5C15.4195 8.6 14.6195 7.9 13.7195 7.9C13.2195 7.9 12.8195 8.3 12.8195 8.7V9C12.8195 8.1 12.0195 7.4 11.1195 7.4C10.6195 7.4 10.2195 7.8 10.2195 8.2V8.5C10.2195 8.4 10.2195 8.2 10.2195 8.2L10.0195 4C10.0195 3.4 9.51953 3 8.91953 3C8.31953 3 7.91953 3.4 7.91953 4V8V13L7.01953 11.6C6.41953 10.8 5.21953 10.4 4.21953 10.8C4.01953 11 4.01953 11.2 4.01953 11.5L5.21953 14.7C5.41953 15.2 5.91953 15.9 6.31953 16.3C6.31953 16.3 8.81953 18.3 8.81953 19.1V20.1H12.8195L13.8195 18.1L14.8195 20.1H15.8195V19.1C15.8195 18.3 17.3195 15.9 17.3195 15.9C17.6195 15.4 17.8195 14.6 17.8195 14.1V10C18.0195 9.1 17.2195 8.4 16.3195 8.4ZM12.0195 16H11.0195V12H12.0195V16ZM14.0195 16H13.0195V12H14.0195V16ZM16.0195 16H15.0195V12H16.0195V16Z" fill="white"/>
<defs>
<filter id="filter0_d_2105_835" x="0" y="0" width="22.1196" height="25" filterUnits="userSpaceOnUse" color-interpolation-filters="sRGB">
<feFlood flood-opacity="0" result="BackgroundImageFix"/>
<feColorMatrix in="SourceAlpha" type="matrix" values="0 0 0 0 0 0 0 0 0 0 0 0 0 0 0 0 0 0 127 0" result="hardAlpha"/>
<feOffset dy="1"/>
<feGaussianBlur stdDeviation="1.5"/>
<feColorMatrix type="matrix" values="0 0 0 0 0 0 0 0 0 0 0 0 0 0 0 0 0 0 0.2 0"/>
<feBlend mode="normal" in2="BackgroundImageFix" result="effect1_dropShadow_2105_835"/>
<feBlend mode="normal" in="SourceGraphic" in2="effect1_dropShadow_2105_835" result="shape"/>
</filter>
</defs>
</svg>
